# Blender v2.91.2 OBJ File: ''
# www.blender.org
mtllib cornell_box.mtl
o cornell
v 1.000000 -0.000000 -1.000000
v -1.000000 -0.000000 -1.000000
v 1.000000 0.000000 1.000000
v -1.000000 0.000000 1.000000
v 1.000000 0.000000 1.000000
v -1.000000 0.000000 1.000000
v 1.000000 2.000000 1.000000
v -1.000000 2.000000 1.000000
v 1.000000 2.000000 -1.000000
v 1.000000 2.000000 1.000000
v -1.000000 2.000000 -1.000000
v -1.000000 2.000000 1.000000
v 0.050000 -0.020000 -0.570000
v -0.130000 -0.020000 0.000000
v -0.530000 -0.020000 -0.750000
v -0.530000 -0.020000 -0.750000
v -0.130000 -0.020000 0.000000
v -0.700000 -0.020000 -0.170000
v -0.130000 -0.020000 0.000000
v 0.050000 -0.020000 -0.570000
v -0.130000 0.600000 -0.000000
v 0.050000 0.600000 -0.570000
v -0.130000 -0.020000 0.000000
v -0.130000 0.600000 -0.000000
v -0.700000 -0.020000 -0.170000
v -0.700000 0.600000 -0.170000
v -0.700000 -0.020000 -0.170000
v -0.700000 0.600000 -0.170000
v -0.530000 -0.020000 -0.750000
v -0.530000 -0.020000 -0.750000
v -0.700000 0.600000 -0.170000
v -0.530000 0.600000 -0.750000
v 0.050000 0.600000 -0.570000
v -0.530000 0.600000 -0.750000
v -0.130000 0.600000 -0.000000
v -0.130000 0.600000 -0.000000
v -0.530000 0.600000 -0.750000
v -0.700000 0.600000 -0.170000
v 0.050000 -0.020000 -0.570000
v -0.530000 -0.020000 -0.750000
v -0.530000 0.600000 -0.750000
v -0.530000 0.600000 -0.750000
v 0.050000 0.600000 -0.570000
v 0.050000 -0.020000 -0.570000
v 0.710000 -0.020000 0.490000
v 0.140000 -0.020000 0.670000
v 0.530000 -0.020000 -0.090000
v 0.530000 -0.020000 -0.090000
v 0.140000 -0.020000 0.670000
v -0.040000 -0.020000 0.090000
v 0.140000 -0.020000 0.670000
v 0.710000 -0.020000 0.490000
v 0.140000 1.200000 0.670000
v 0.140000 1.200000 0.670000
v 0.710000 -0.020000 0.490000
v 0.710000 1.200000 0.490000
v 0.140000 -0.020000 0.670000
v 0.140000 1.200000 0.670000
v -0.040000 -0.020000 0.090000
v -0.040000 1.200000 0.090000
v -0.040000 -0.020000 0.090000
v -0.040000 1.200000 0.090000
v 0.530000 -0.020000 -0.090000
v 0.530000 1.200000 -0.090000
v 0.710000 1.200000 0.490000
v 0.530000 1.200000 -0.090000
v 0.140000 1.200000 0.670000
v 0.140000 1.200000 0.670000
v 0.530000 1.200000 -0.090000
v -0.040000 1.200000 0.090000
v 0.710000 -0.020000 0.490000
v 0.530000 -0.020000 -0.090000
v 0.530000 1.200000 -0.090000
v 0.710000 1.200000 0.490000
v 1.000000 0.000000 1.000000
v 1.000000 2.000000 1.000000
v 1.000000 -0.000000 -1.000000
v 1.000000 2.000000 -1.000000
v -1.000000 0.000000 1.000000
v -1.000000 -0.000000 -1.000000
v -1.000000 2.000000 1.000000
v -1.000000 2.000000 -1.000000
vt 0.000000 0.000000
vt 0.000000 0.000000
vt 0.000000 0.000000
vt 0.000000 0.000000
vt 0.000000 0.000000
vt 0.000000 0.000000
vt 0.000000 0.000000
vt 0.000000 0.000000
vt 0.000000 0.000000
vt 0.000000 0.000000
vt 0.000000 0.000000
vt 0.000000 0.000000
vt 0.000000 0.000000
vt 0.000000 0.000000
vt 0.000000 0.000000
vt 0.000000 0.000000
vt 0.000000 0.000000
vt 0.000000 0.000000
vt 0.000000 0.000000
vt 0.000000 0.000000
vt 0.000000 0.000000
vt 0.000000 0.000000
vt 0.000000 0.000000
vt 0.000000 0.000000
vt 0.000000 0.000000
vt 0.000000 0.000000
vt 0.000000 0.000000
vt 0.000000 0.000000
vt 0.000000 0.000000
vt 0.000000 0.000000
vt 0.000000 0.000000
vt 0.000000 0.000000
vt 0.000000 0.000000
vt 0.000000 0.000000
vt 0.000000 0.000000
vt 0.000000 0.000000
vt 0.000000 0.000000
vt 0.000000 0.000000
vt 0.000000 0.000000
vt 0.000000 0.000000
vt 0.000000 0.000000
vt 0.000000 0.000000
vt 0.000000 0.000000
vt 0.000000 0.000000
vt 0.000000 0.000000
vt 0.000000 0.000000
vt 0.000000 0.000000
vt 0.000000 0.000000
vt 0.000000 0.000000
vt 0.000000 0.000000
vt 0.000000 0.000000
vt 0.000000 0.000000
vt 0.000000 0.000000
vt 0.000000 0.000000
vt 0.000000 0.000000
vt 0.000000 0.000000
vt 0.000000 0.000000
vt 0.000000 0.000000
vt 0.000000 0.000000
vt 0.000000 0.000000
vt 0.000000 0.000000
vt 0.000000 0.000000
vt 0.000000 0.000000
vt 0.000000 0.000000
vt 0.000000 0.000000
vt 0.000000 0.000000
vt 0.000000 0.000000
vt 0.000000 0.000000
vt 0.000000 0.000000
vt 0.000000 0.000000
vt 0.000000 0.000000
vt 0.000000 0.000000
vt 0.000000 0.000000
vt 0.000000 0.000000
vt 0.000000 0.000000
vt 0.000000 0.000000
vt 0.000000 0.000000
vt 0.000000 0.000000
vt 0.000000 0.000000
vt 0.000000 0.000000
vt 0.000000 0.000000
vt 0.000000 0.000000
vn 0.0000 1.0000 -0.0000
vn 0.0000 -0.0000 -1.0000
vn 0.0000 -1.0000 0.0000
vn 0.9536 0.0000 0.3011
vn -0.9596 -0.0000 -0.2813
vn 0.2964 -0.0000 -0.9551
vn 0.3011 0.0000 0.9536
vn -0.9551 0.0000 0.2964
vn -0.3011 -0.0000 -0.9536
vn 0.9551 0.0000 -0.2964
vn -0.2858 0.0000 0.9583
vn -1.0000 0.0000 0.0000
vn 1.0000 0.0000 0.0000
g cornell_cornell_white
usemtl white
s off
f 1/1/1 2/2/1 3/3/1
f 3/3/1 2/2/1 4/4/1
f 5/5/2 6/6/2 7/7/2
f 7/7/2 6/6/2 8/8/2
f 9/9/3 10/10/3 11/11/3
f 11/11/3 10/10/3 12/12/3
f 13/13/3 14/14/3 15/15/3
f 16/16/3 17/17/3 18/18/3
f 19/19/4 20/20/4 21/21/4
f 21/21/4 20/20/4 22/22/4
f 27/23/5 28/24/5 29/25/5
f 30/26/5 31/27/5 32/28/5
f 33/29/1 34/30/1 35/31/1
f 36/32/1 37/33/1 38/34/1
f 39/35/6 40/36/6 41/37/6
f 42/38/6 43/39/6 44/40/6
f 45/41/3 46/42/3 47/43/3
f 48/44/3 49/45/3 50/46/3
f 51/47/7 52/48/7 53/49/7
f 54/50/7 55/51/7 56/52/7
f 57/53/8 58/54/8 59/55/8
f 59/55/8 58/54/8 60/56/8
f 61/57/9 62/58/9 63/59/9
f 63/59/9 62/58/9 64/60/9
f 68/61/1 69/62/1 70/63/1
f 71/64/10 72/65/10 73/66/10
f 73/66/10 74/67/10 71/64/10
s 1
f 23/68/11 24/69/11 25/70/11
f 25/70/11 24/69/11 26/71/11
f 65/72/1 66/73/1 67/74/1
g cornell_cornell_red
usemtl red
s off
f 75/75/12 76/76/12 77/77/12
f 77/77/12 76/76/12 78/78/12
g cornell_cornell_green
usemtl green
f 79/79/13 80/80/13 81/81/13
f 81/81/13 80/80/13 82/82/13
